<mxfile host="Electron" agent="Mozilla/5.0 (Windows NT 10.0; Win64; x64) AppleWebKit/537.36 (KHTML, like Gecko) draw.io/24.4.0 Chrome/120.0.6099.109 Electron/28.1.0 Safari/537.36" modified="2024-09-30T13:22:02.703Z" etag="iXljs7EBsgPES8M8GN6t" version="24.4.0" type="device">
  <diagram id="vwc_WUm5UydiK6H_exXm" name="Page-3">
    <mxGraphModel dx="2268" dy="4120" grid="1" gridSize="10" guides="1" tooltips="1" connect="1" arrows="1" fold="1" page="1" pageScale="1" pageWidth="850" pageHeight="1100" math="0" shadow="0">
      <root>
        <mxCell id="0" />
        <mxCell id="1" parent="0" />
        <mxCell id="ozzWUqwtvMehHK5JyDFh-75" style="edgeStyle=orthogonalEdgeStyle;rounded=0;orthogonalLoop=1;jettySize=auto;html=1;endArrow=none;endFill=0;" parent="1" source="odE3o9voV-Ob1sfh6Uxt-1" target="ozzWUqwtvMehHK5JyDFh-9" edge="1">
          <mxGeometry relative="1" as="geometry">
            <Array as="points">
              <mxPoint x="-720" y="-1350" />
            </Array>
          </mxGeometry>
        </mxCell>
        <mxCell id="erY_Y8K54nVoBbs4rCjk-34" value="*" style="edgeLabel;html=1;align=center;verticalAlign=middle;resizable=0;points=[];" parent="ozzWUqwtvMehHK5JyDFh-75" vertex="1" connectable="0">
          <mxGeometry x="0.9049" y="2" relative="1" as="geometry">
            <mxPoint as="offset" />
          </mxGeometry>
        </mxCell>
        <mxCell id="erY_Y8K54nVoBbs4rCjk-35" value="1" style="edgeLabel;html=1;align=center;verticalAlign=middle;resizable=0;points=[];" parent="ozzWUqwtvMehHK5JyDFh-75" vertex="1" connectable="0">
          <mxGeometry x="-0.8885" y="-4" relative="1" as="geometry">
            <mxPoint as="offset" />
          </mxGeometry>
        </mxCell>
        <mxCell id="gFnwLOvvY6CRmP-hA4vS-5" value="cree" style="edgeLabel;html=1;align=center;verticalAlign=middle;resizable=0;points=[];" parent="ozzWUqwtvMehHK5JyDFh-75" vertex="1" connectable="0">
          <mxGeometry x="0.6492" relative="1" as="geometry">
            <mxPoint as="offset" />
          </mxGeometry>
        </mxCell>
        <mxCell id="odE3o9voV-Ob1sfh6Uxt-1" value="utilisateur" style="swimlane;fontStyle=0;align=center;verticalAlign=top;childLayout=stackLayout;horizontal=1;startSize=26;horizontalStack=0;resizeParent=1;resizeLast=0;collapsible=1;marginBottom=0;rounded=0;shadow=0;strokeWidth=1;" parent="1" vertex="1">
          <mxGeometry x="-820" y="-1870" width="160" height="140" as="geometry">
            <mxRectangle x="550" y="140" width="160" height="26" as="alternateBounds" />
          </mxGeometry>
        </mxCell>
        <mxCell id="odE3o9voV-Ob1sfh6Uxt-2" value="idUser" style="text;align=left;verticalAlign=top;spacingLeft=4;spacingRight=4;overflow=hidden;rotatable=0;points=[[0,0.5],[1,0.5]];portConstraint=eastwest;fillColor=#f8cecc;strokeColor=#b85450;" parent="odE3o9voV-Ob1sfh6Uxt-1" vertex="1">
          <mxGeometry y="26" width="160" height="26" as="geometry" />
        </mxCell>
        <mxCell id="odE3o9voV-Ob1sfh6Uxt-3" value="nom" style="text;align=left;verticalAlign=top;spacingLeft=4;spacingRight=4;overflow=hidden;rotatable=0;points=[[0,0.5],[1,0.5]];portConstraint=eastwest;rounded=0;shadow=0;html=0;" parent="odE3o9voV-Ob1sfh6Uxt-1" vertex="1">
          <mxGeometry y="52" width="160" height="26" as="geometry" />
        </mxCell>
        <mxCell id="odE3o9voV-Ob1sfh6Uxt-4" value="email" style="text;align=left;verticalAlign=top;spacingLeft=4;spacingRight=4;overflow=hidden;rotatable=0;points=[[0,0.5],[1,0.5]];portConstraint=eastwest;rounded=0;shadow=0;html=0;" parent="odE3o9voV-Ob1sfh6Uxt-1" vertex="1">
          <mxGeometry y="78" width="160" height="26" as="geometry" />
        </mxCell>
        <mxCell id="odE3o9voV-Ob1sfh6Uxt-5" value="motDePasse" style="text;align=left;verticalAlign=top;spacingLeft=4;spacingRight=4;overflow=hidden;rotatable=0;points=[[0,0.5],[1,0.5]];portConstraint=eastwest;rounded=0;shadow=0;html=0;" parent="odE3o9voV-Ob1sfh6Uxt-1" vertex="1">
          <mxGeometry y="104" width="160" height="26" as="geometry" />
        </mxCell>
        <mxCell id="ozzWUqwtvMehHK5JyDFh-67" style="edgeStyle=orthogonalEdgeStyle;rounded=0;orthogonalLoop=1;jettySize=auto;html=1;endArrow=none;endFill=0;" parent="1" source="4SEUAabvdpcE1m8a-b8G-1" target="hd0bJHtvOqG6E9c5hCHG-1" edge="1">
          <mxGeometry relative="1" as="geometry">
            <Array as="points">
              <mxPoint x="70" y="-1650" />
              <mxPoint x="70" y="-1870" />
              <mxPoint x="240" y="-1870" />
              <mxPoint x="240" y="-2065" />
              <mxPoint x="270" y="-2065" />
              <mxPoint x="270" y="-2185" />
            </Array>
            <mxPoint x="70" y="-1820" as="sourcePoint" />
            <mxPoint x="270" y="-2160" as="targetPoint" />
          </mxGeometry>
        </mxCell>
        <mxCell id="erY_Y8K54nVoBbs4rCjk-25" value="1" style="edgeLabel;html=1;align=center;verticalAlign=middle;resizable=0;points=[];" parent="ozzWUqwtvMehHK5JyDFh-67" vertex="1" connectable="0">
          <mxGeometry x="-0.9507" relative="1" as="geometry">
            <mxPoint as="offset" />
          </mxGeometry>
        </mxCell>
        <mxCell id="erY_Y8K54nVoBbs4rCjk-26" value="*" style="edgeLabel;html=1;align=center;verticalAlign=middle;resizable=0;points=[];" parent="ozzWUqwtvMehHK5JyDFh-67" vertex="1" connectable="0">
          <mxGeometry x="0.958" y="-1" relative="1" as="geometry">
            <mxPoint as="offset" />
          </mxGeometry>
        </mxCell>
        <mxCell id="ozzWUqwtvMehHK5JyDFh-76" style="edgeStyle=orthogonalEdgeStyle;rounded=0;orthogonalLoop=1;jettySize=auto;html=1;endArrow=none;endFill=0;" parent="1" source="4SEUAabvdpcE1m8a-b8G-1" target="odE3o9voV-Ob1sfh6Uxt-1" edge="1">
          <mxGeometry relative="1" as="geometry">
            <mxPoint x="-360" y="-1508" as="targetPoint" />
            <Array as="points">
              <mxPoint x="-190" y="-1790" />
              <mxPoint x="-390" y="-1790" />
              <mxPoint x="-390" y="-1800" />
            </Array>
          </mxGeometry>
        </mxCell>
        <mxCell id="erY_Y8K54nVoBbs4rCjk-40" value="*" style="edgeLabel;html=1;align=center;verticalAlign=middle;resizable=0;points=[];" parent="ozzWUqwtvMehHK5JyDFh-76" vertex="1" connectable="0">
          <mxGeometry x="-0.8926" y="3" relative="1" as="geometry">
            <mxPoint as="offset" />
          </mxGeometry>
        </mxCell>
        <mxCell id="erY_Y8K54nVoBbs4rCjk-41" value="1" style="edgeLabel;html=1;align=center;verticalAlign=middle;resizable=0;points=[];" parent="ozzWUqwtvMehHK5JyDFh-76" vertex="1" connectable="0">
          <mxGeometry x="0.8735" y="-3" relative="1" as="geometry">
            <mxPoint as="offset" />
          </mxGeometry>
        </mxCell>
        <mxCell id="erY_Y8K54nVoBbs4rCjk-42" value="cree" style="edgeLabel;html=1;align=center;verticalAlign=middle;resizable=0;points=[];" parent="ozzWUqwtvMehHK5JyDFh-76" vertex="1" connectable="0">
          <mxGeometry x="0.1959" y="-3" relative="1" as="geometry">
            <mxPoint as="offset" />
          </mxGeometry>
        </mxCell>
        <mxCell id="4SEUAabvdpcE1m8a-b8G-1" value="recette" style="swimlane;fontStyle=0;align=center;verticalAlign=top;childLayout=stackLayout;horizontal=1;startSize=26;horizontalStack=0;resizeParent=1;resizeLast=0;collapsible=1;marginBottom=0;rounded=0;shadow=0;strokeWidth=1;" parent="1" vertex="1">
          <mxGeometry x="-270" y="-1780" width="160" height="364" as="geometry">
            <mxRectangle x="550" y="140" width="160" height="26" as="alternateBounds" />
          </mxGeometry>
        </mxCell>
        <mxCell id="4SEUAabvdpcE1m8a-b8G-2" value="idRecette" style="text;align=left;verticalAlign=top;spacingLeft=4;spacingRight=4;overflow=hidden;rotatable=0;points=[[0,0.5],[1,0.5]];portConstraint=eastwest;fillColor=#f8cecc;strokeColor=#b85450;" parent="4SEUAabvdpcE1m8a-b8G-1" vertex="1">
          <mxGeometry y="26" width="160" height="26" as="geometry" />
        </mxCell>
        <mxCell id="erY_Y8K54nVoBbs4rCjk-18" value="titre " style="text;align=left;verticalAlign=top;spacingLeft=4;spacingRight=4;overflow=hidden;rotatable=0;points=[[0,0.5],[1,0.5]];portConstraint=eastwest;rounded=0;shadow=0;html=0;" parent="4SEUAabvdpcE1m8a-b8G-1" vertex="1">
          <mxGeometry y="52" width="160" height="26" as="geometry" />
        </mxCell>
        <mxCell id="4SEUAabvdpcE1m8a-b8G-4" value="description&#xa;" style="text;align=left;verticalAlign=top;spacingLeft=4;spacingRight=4;overflow=hidden;rotatable=0;points=[[0,0.5],[1,0.5]];portConstraint=eastwest;rounded=0;shadow=0;html=0;" parent="4SEUAabvdpcE1m8a-b8G-1" vertex="1">
          <mxGeometry y="78" width="160" height="26" as="geometry" />
        </mxCell>
        <mxCell id="mcV92-NiP1g8-dqeTaFb-3" value="theme" style="text;align=left;verticalAlign=top;spacingLeft=4;spacingRight=4;overflow=hidden;rotatable=0;points=[[0,0.5],[1,0.5]];portConstraint=eastwest;rounded=0;shadow=0;html=0;" parent="4SEUAabvdpcE1m8a-b8G-1" vertex="1">
          <mxGeometry y="104" width="160" height="26" as="geometry" />
        </mxCell>
        <mxCell id="4SEUAabvdpcE1m8a-b8G-5" value="datePublication " style="text;align=left;verticalAlign=top;spacingLeft=4;spacingRight=4;overflow=hidden;rotatable=0;points=[[0,0.5],[1,0.5]];portConstraint=eastwest;rounded=0;shadow=0;html=0;" parent="4SEUAabvdpcE1m8a-b8G-1" vertex="1">
          <mxGeometry y="130" width="160" height="26" as="geometry" />
        </mxCell>
        <mxCell id="4SEUAabvdpcE1m8a-b8G-6" value="temps de preparation " style="text;align=left;verticalAlign=top;spacingLeft=4;spacingRight=4;overflow=hidden;rotatable=0;points=[[0,0.5],[1,0.5]];portConstraint=eastwest;rounded=0;shadow=0;html=0;" parent="4SEUAabvdpcE1m8a-b8G-1" vertex="1">
          <mxGeometry y="156" width="160" height="26" as="geometry" />
        </mxCell>
        <mxCell id="4SEUAabvdpcE1m8a-b8G-7" value="tempsDeCuison" style="text;align=left;verticalAlign=top;spacingLeft=4;spacingRight=4;overflow=hidden;rotatable=0;points=[[0,0.5],[1,0.5]];portConstraint=eastwest;rounded=0;shadow=0;html=0;" parent="4SEUAabvdpcE1m8a-b8G-1" vertex="1">
          <mxGeometry y="182" width="160" height="26" as="geometry" />
        </mxCell>
        <mxCell id="erY_Y8K54nVoBbs4rCjk-16" value="difficulte" style="text;align=left;verticalAlign=top;spacingLeft=4;spacingRight=4;overflow=hidden;rotatable=0;points=[[0,0.5],[1,0.5]];portConstraint=eastwest;rounded=0;shadow=0;html=0;" parent="4SEUAabvdpcE1m8a-b8G-1" vertex="1">
          <mxGeometry y="208" width="160" height="26" as="geometry" />
        </mxCell>
        <mxCell id="4SEUAabvdpcE1m8a-b8G-8" value="photo" style="text;align=left;verticalAlign=top;spacingLeft=4;spacingRight=4;overflow=hidden;rotatable=0;points=[[0,0.5],[1,0.5]];portConstraint=eastwest;rounded=0;shadow=0;html=0;" parent="4SEUAabvdpcE1m8a-b8G-1" vertex="1">
          <mxGeometry y="234" width="160" height="26" as="geometry" />
        </mxCell>
        <mxCell id="mcV92-NiP1g8-dqeTaFb-1" value="nombrePortions" style="text;align=left;verticalAlign=top;spacingLeft=4;spacingRight=4;overflow=hidden;rotatable=0;points=[[0,0.5],[1,0.5]];portConstraint=eastwest;rounded=0;shadow=0;html=0;" parent="4SEUAabvdpcE1m8a-b8G-1" vertex="1">
          <mxGeometry y="260" width="160" height="26" as="geometry" />
        </mxCell>
        <mxCell id="mcV92-NiP1g8-dqeTaFb-4" value="saison" style="text;align=left;verticalAlign=top;spacingLeft=4;spacingRight=4;overflow=hidden;rotatable=0;points=[[0,0.5],[1,0.5]];portConstraint=eastwest;rounded=0;shadow=0;html=0;" parent="4SEUAabvdpcE1m8a-b8G-1" vertex="1">
          <mxGeometry y="286" width="160" height="26" as="geometry" />
        </mxCell>
        <mxCell id="mcV92-NiP1g8-dqeTaFb-5" value="origine" style="text;align=left;verticalAlign=top;spacingLeft=4;spacingRight=4;overflow=hidden;rotatable=0;points=[[0,0.5],[1,0.5]];portConstraint=eastwest;rounded=0;shadow=0;html=0;" parent="4SEUAabvdpcE1m8a-b8G-1" vertex="1">
          <mxGeometry y="312" width="160" height="26" as="geometry" />
        </mxCell>
        <mxCell id="O8JUUzJVAI8Xin-plTgJ-1" value="typePlat" style="text;align=left;verticalAlign=top;spacingLeft=4;spacingRight=4;overflow=hidden;rotatable=0;points=[[0,0.5],[1,0.5]];portConstraint=eastwest;rounded=0;shadow=0;html=0;" vertex="1" parent="4SEUAabvdpcE1m8a-b8G-1">
          <mxGeometry y="338" width="160" height="26" as="geometry" />
        </mxCell>
        <mxCell id="erY_Y8K54nVoBbs4rCjk-5" style="edgeStyle=orthogonalEdgeStyle;rounded=0;orthogonalLoop=1;jettySize=auto;html=1;endArrow=none;endFill=0;" parent="1" source="hd0bJHtvOqG6E9c5hCHG-1" target="odE3o9voV-Ob1sfh6Uxt-1" edge="1">
          <mxGeometry relative="1" as="geometry" />
        </mxCell>
        <mxCell id="erY_Y8K54nVoBbs4rCjk-19" value="1" style="edgeLabel;html=1;align=center;verticalAlign=middle;resizable=0;points=[];" parent="erY_Y8K54nVoBbs4rCjk-5" vertex="1" connectable="0">
          <mxGeometry x="0.9553" y="-1" relative="1" as="geometry">
            <mxPoint as="offset" />
          </mxGeometry>
        </mxCell>
        <mxCell id="erY_Y8K54nVoBbs4rCjk-20" value="*" style="edgeLabel;html=1;align=center;verticalAlign=middle;resizable=0;points=[];" parent="erY_Y8K54nVoBbs4rCjk-5" vertex="1" connectable="0">
          <mxGeometry x="-0.9431" y="-2" relative="1" as="geometry">
            <mxPoint as="offset" />
          </mxGeometry>
        </mxCell>
        <mxCell id="gFnwLOvvY6CRmP-hA4vS-2" value="noter&amp;nbsp;" style="edgeLabel;html=1;align=center;verticalAlign=middle;resizable=0;points=[];" parent="erY_Y8K54nVoBbs4rCjk-5" vertex="1" connectable="0">
          <mxGeometry x="-0.816" y="1" relative="1" as="geometry">
            <mxPoint as="offset" />
          </mxGeometry>
        </mxCell>
        <mxCell id="hd0bJHtvOqG6E9c5hCHG-1" value="note" style="swimlane;fontStyle=0;align=center;verticalAlign=top;childLayout=stackLayout;horizontal=1;startSize=26;horizontalStack=0;resizeParent=1;resizeLast=0;collapsible=1;marginBottom=0;rounded=0;shadow=0;strokeWidth=1;" parent="1" vertex="1">
          <mxGeometry x="-70" y="-2250" width="160" height="130" as="geometry">
            <mxRectangle x="130" y="380" width="160" height="26" as="alternateBounds" />
          </mxGeometry>
        </mxCell>
        <mxCell id="hd0bJHtvOqG6E9c5hCHG-2" value="id" style="text;align=left;verticalAlign=top;spacingLeft=4;spacingRight=4;overflow=hidden;rotatable=0;points=[[0,0.5],[1,0.5]];portConstraint=eastwest;fillColor=#f8cecc;strokeColor=#b85450;" parent="hd0bJHtvOqG6E9c5hCHG-1" vertex="1">
          <mxGeometry y="26" width="160" height="26" as="geometry" />
        </mxCell>
        <mxCell id="hd0bJHtvOqG6E9c5hCHG-5" value="valeur" style="text;align=left;verticalAlign=top;spacingLeft=4;spacingRight=4;overflow=hidden;rotatable=0;points=[[0,0.5],[1,0.5]];portConstraint=eastwest;rounded=0;shadow=0;html=0;" parent="hd0bJHtvOqG6E9c5hCHG-1" vertex="1">
          <mxGeometry y="52" width="160" height="26" as="geometry" />
        </mxCell>
        <mxCell id="ozzWUqwtvMehHK5JyDFh-66" style="edgeStyle=orthogonalEdgeStyle;rounded=0;orthogonalLoop=1;jettySize=auto;html=1;exitX=0.5;exitY=1;exitDx=0;exitDy=0;endArrow=none;endFill=0;" parent="1" source="0V3GPoJc0nEK8_g2bOWr-1" target="odE3o9voV-Ob1sfh6Uxt-1" edge="1">
          <mxGeometry relative="1" as="geometry">
            <Array as="points">
              <mxPoint x="-490" y="-1984" />
              <mxPoint x="-490" y="-1927" />
              <mxPoint x="-700" y="-1927" />
            </Array>
          </mxGeometry>
        </mxCell>
        <mxCell id="erY_Y8K54nVoBbs4rCjk-21" value="*" style="edgeLabel;html=1;align=center;verticalAlign=middle;resizable=0;points=[];" parent="ozzWUqwtvMehHK5JyDFh-66" vertex="1" connectable="0">
          <mxGeometry x="-0.2672" y="-1" relative="1" as="geometry">
            <mxPoint as="offset" />
          </mxGeometry>
        </mxCell>
        <mxCell id="erY_Y8K54nVoBbs4rCjk-22" value="1" style="edgeLabel;html=1;align=center;verticalAlign=middle;resizable=0;points=[];" parent="ozzWUqwtvMehHK5JyDFh-66" vertex="1" connectable="0">
          <mxGeometry x="0.9052" y="3" relative="1" as="geometry">
            <mxPoint as="offset" />
          </mxGeometry>
        </mxCell>
        <mxCell id="gFnwLOvvY6CRmP-hA4vS-4" value="commenter" style="edgeLabel;html=1;align=center;verticalAlign=middle;resizable=0;points=[];" parent="ozzWUqwtvMehHK5JyDFh-66" vertex="1" connectable="0">
          <mxGeometry x="0.0112" y="1" relative="1" as="geometry">
            <mxPoint as="offset" />
          </mxGeometry>
        </mxCell>
        <mxCell id="erY_Y8K54nVoBbs4rCjk-3" style="edgeStyle=orthogonalEdgeStyle;rounded=0;orthogonalLoop=1;jettySize=auto;html=1;endArrow=none;endFill=0;" parent="1" source="0V3GPoJc0nEK8_g2bOWr-4" target="4SEUAabvdpcE1m8a-b8G-1" edge="1">
          <mxGeometry relative="1" as="geometry">
            <Array as="points">
              <mxPoint x="-130" y="-2049" />
            </Array>
          </mxGeometry>
        </mxCell>
        <mxCell id="erY_Y8K54nVoBbs4rCjk-23" value="1" style="edgeLabel;html=1;align=center;verticalAlign=middle;resizable=0;points=[];" parent="erY_Y8K54nVoBbs4rCjk-3" vertex="1" connectable="0">
          <mxGeometry x="0.8462" relative="1" as="geometry">
            <mxPoint as="offset" />
          </mxGeometry>
        </mxCell>
        <mxCell id="erY_Y8K54nVoBbs4rCjk-24" value="*" style="edgeLabel;html=1;align=center;verticalAlign=middle;resizable=0;points=[];" parent="erY_Y8K54nVoBbs4rCjk-3" vertex="1" connectable="0">
          <mxGeometry x="-0.8997" y="1" relative="1" as="geometry">
            <mxPoint as="offset" />
          </mxGeometry>
        </mxCell>
        <mxCell id="0V3GPoJc0nEK8_g2bOWr-1" value="commentaire" style="swimlane;fontStyle=0;align=center;verticalAlign=top;childLayout=stackLayout;horizontal=1;startSize=26;horizontalStack=0;resizeParent=1;resizeLast=0;collapsible=1;marginBottom=0;rounded=0;shadow=0;strokeWidth=1;" parent="1" vertex="1">
          <mxGeometry x="-480" y="-2140" width="260" height="156" as="geometry">
            <mxRectangle x="130" y="380" width="160" height="26" as="alternateBounds" />
          </mxGeometry>
        </mxCell>
        <mxCell id="0V3GPoJc0nEK8_g2bOWr-2" value="id " style="text;align=left;verticalAlign=top;spacingLeft=4;spacingRight=4;overflow=hidden;rotatable=0;points=[[0,0.5],[1,0.5]];portConstraint=eastwest;fillColor=#f8cecc;strokeColor=#b85450;" parent="0V3GPoJc0nEK8_g2bOWr-1" vertex="1">
          <mxGeometry y="26" width="260" height="26" as="geometry" />
        </mxCell>
        <mxCell id="erY_Y8K54nVoBbs4rCjk-1" value="contenu" style="text;align=left;verticalAlign=top;spacingLeft=4;spacingRight=4;overflow=hidden;rotatable=0;points=[[0,0.5],[1,0.5]];portConstraint=eastwest;rounded=0;shadow=0;html=0;" parent="0V3GPoJc0nEK8_g2bOWr-1" vertex="1">
          <mxGeometry y="52" width="260" height="26" as="geometry" />
        </mxCell>
        <mxCell id="0V3GPoJc0nEK8_g2bOWr-4" value="dateCommentaire" style="text;align=left;verticalAlign=top;spacingLeft=4;spacingRight=4;overflow=hidden;rotatable=0;points=[[0,0.5],[1,0.5]];portConstraint=eastwest;rounded=0;shadow=0;html=0;" parent="0V3GPoJc0nEK8_g2bOWr-1" vertex="1">
          <mxGeometry y="78" width="260" height="26" as="geometry" />
        </mxCell>
        <mxCell id="ozzWUqwtvMehHK5JyDFh-69" style="edgeStyle=orthogonalEdgeStyle;rounded=0;orthogonalLoop=1;jettySize=auto;html=1;endArrow=none;endFill=0;" parent="1" source="ozzWUqwtvMehHK5JyDFh-1" target="ozzWUqwtvMehHK5JyDFh-47" edge="1">
          <mxGeometry relative="1" as="geometry" />
        </mxCell>
        <mxCell id="erY_Y8K54nVoBbs4rCjk-32" value="*" style="edgeLabel;html=1;align=center;verticalAlign=middle;resizable=0;points=[];" parent="ozzWUqwtvMehHK5JyDFh-69" vertex="1" connectable="0">
          <mxGeometry x="0.8933" y="2" relative="1" as="geometry">
            <mxPoint as="offset" />
          </mxGeometry>
        </mxCell>
        <mxCell id="erY_Y8K54nVoBbs4rCjk-33" value="1" style="edgeLabel;html=1;align=center;verticalAlign=middle;resizable=0;points=[];" parent="ozzWUqwtvMehHK5JyDFh-69" vertex="1" connectable="0">
          <mxGeometry x="-0.7748" y="-1" relative="1" as="geometry">
            <mxPoint as="offset" />
          </mxGeometry>
        </mxCell>
        <mxCell id="ozzWUqwtvMehHK5JyDFh-1" value="ingredient" style="swimlane;fontStyle=0;align=center;verticalAlign=top;childLayout=stackLayout;horizontal=1;startSize=26;horizontalStack=0;resizeParent=1;resizeLast=0;collapsible=1;marginBottom=0;rounded=0;shadow=0;strokeWidth=1;" parent="1" vertex="1">
          <mxGeometry x="425" y="-1573" width="160" height="130" as="geometry">
            <mxRectangle x="130" y="380" width="160" height="26" as="alternateBounds" />
          </mxGeometry>
        </mxCell>
        <mxCell id="ozzWUqwtvMehHK5JyDFh-2" value="id " style="text;align=left;verticalAlign=top;spacingLeft=4;spacingRight=4;overflow=hidden;rotatable=0;points=[[0,0.5],[1,0.5]];portConstraint=eastwest;fillColor=#f8cecc;strokeColor=#b85450;" parent="ozzWUqwtvMehHK5JyDFh-1" vertex="1">
          <mxGeometry y="26" width="160" height="26" as="geometry" />
        </mxCell>
        <mxCell id="ozzWUqwtvMehHK5JyDFh-3" value="nom" style="text;align=left;verticalAlign=top;spacingLeft=4;spacingRight=4;overflow=hidden;rotatable=0;points=[[0,0.5],[1,0.5]];portConstraint=eastwest;rounded=0;shadow=0;html=0;" parent="ozzWUqwtvMehHK5JyDFh-1" vertex="1">
          <mxGeometry y="52" width="160" height="26" as="geometry" />
        </mxCell>
        <mxCell id="ozzWUqwtvMehHK5JyDFh-72" style="edgeStyle=orthogonalEdgeStyle;rounded=0;orthogonalLoop=1;jettySize=auto;html=1;endArrow=none;endFill=0;" parent="1" source="ozzWUqwtvMehHK5JyDFh-9" target="ozzWUqwtvMehHK5JyDFh-55" edge="1">
          <mxGeometry relative="1" as="geometry" />
        </mxCell>
        <mxCell id="erY_Y8K54nVoBbs4rCjk-36" value="*" style="edgeLabel;html=1;align=center;verticalAlign=middle;resizable=0;points=[];" parent="ozzWUqwtvMehHK5JyDFh-72" vertex="1" connectable="0">
          <mxGeometry x="0.8347" y="1" relative="1" as="geometry">
            <mxPoint as="offset" />
          </mxGeometry>
        </mxCell>
        <mxCell id="erY_Y8K54nVoBbs4rCjk-37" value="1" style="edgeLabel;html=1;align=center;verticalAlign=middle;resizable=0;points=[];" parent="ozzWUqwtvMehHK5JyDFh-72" vertex="1" connectable="0">
          <mxGeometry x="-0.9008" y="-1" relative="1" as="geometry">
            <mxPoint as="offset" />
          </mxGeometry>
        </mxCell>
        <mxCell id="ozzWUqwtvMehHK5JyDFh-9" value="courses liste" style="swimlane;fontStyle=0;align=center;verticalAlign=top;childLayout=stackLayout;horizontal=1;startSize=26;horizontalStack=0;resizeParent=1;resizeLast=0;collapsible=1;marginBottom=0;rounded=0;shadow=0;strokeWidth=1;" parent="1" vertex="1">
          <mxGeometry x="-490" y="-1390" width="160" height="104" as="geometry">
            <mxRectangle x="130" y="380" width="160" height="26" as="alternateBounds" />
          </mxGeometry>
        </mxCell>
        <mxCell id="ozzWUqwtvMehHK5JyDFh-79" value="id" style="text;align=left;verticalAlign=top;spacingLeft=4;spacingRight=4;overflow=hidden;rotatable=0;points=[[0,0.5],[1,0.5]];portConstraint=eastwest;fillColor=#f8cecc;strokeColor=#b85450;" parent="ozzWUqwtvMehHK5JyDFh-9" vertex="1">
          <mxGeometry y="26" width="160" height="26" as="geometry" />
        </mxCell>
        <mxCell id="ozzWUqwtvMehHK5JyDFh-11" value="name" style="text;align=left;verticalAlign=top;spacingLeft=4;spacingRight=4;overflow=hidden;rotatable=0;points=[[0,0.5],[1,0.5]];portConstraint=eastwest;rounded=0;shadow=0;html=0;" parent="ozzWUqwtvMehHK5JyDFh-9" vertex="1">
          <mxGeometry y="52" width="160" height="26" as="geometry" />
        </mxCell>
        <mxCell id="ozzWUqwtvMehHK5JyDFh-47" value="detailRecette" style="swimlane;fontStyle=0;align=center;verticalAlign=top;childLayout=stackLayout;horizontal=1;startSize=26;horizontalStack=0;resizeParent=1;resizeLast=0;collapsible=1;marginBottom=0;rounded=0;shadow=0;strokeWidth=1;" parent="1" vertex="1">
          <mxGeometry x="160" y="-1794" width="160" height="338" as="geometry">
            <mxRectangle x="130" y="380" width="160" height="26" as="alternateBounds" />
          </mxGeometry>
        </mxCell>
        <mxCell id="ozzWUqwtvMehHK5JyDFh-83" value="id " style="text;align=left;verticalAlign=top;spacingLeft=4;spacingRight=4;overflow=hidden;rotatable=0;points=[[0,0.5],[1,0.5]];portConstraint=eastwest;fillColor=#f8cecc;strokeColor=#b85450;" parent="ozzWUqwtvMehHK5JyDFh-47" vertex="1">
          <mxGeometry y="26" width="160" height="26" as="geometry" />
        </mxCell>
        <mxCell id="erY_Y8K54nVoBbs4rCjk-15" value="quantite" style="text;align=left;verticalAlign=top;spacingLeft=4;spacingRight=4;overflow=hidden;rotatable=0;points=[[0,0.5],[1,0.5]];portConstraint=eastwest;rounded=0;shadow=0;html=0;" parent="ozzWUqwtvMehHK5JyDFh-47" vertex="1">
          <mxGeometry y="52" width="160" height="26" as="geometry" />
        </mxCell>
        <mxCell id="erY_Y8K54nVoBbs4rCjk-11" value="uniteMesure" style="text;align=left;verticalAlign=top;spacingLeft=4;spacingRight=4;overflow=hidden;rotatable=0;points=[[0,0.5],[1,0.5]];portConstraint=eastwest;rounded=0;shadow=0;html=0;" parent="ozzWUqwtvMehHK5JyDFh-47" vertex="1">
          <mxGeometry y="78" width="160" height="26" as="geometry" />
        </mxCell>
        <mxCell id="ozzWUqwtvMehHK5JyDFh-73" style="edgeStyle=orthogonalEdgeStyle;rounded=0;orthogonalLoop=1;jettySize=auto;html=1;endArrow=none;endFill=0;" parent="1" source="ozzWUqwtvMehHK5JyDFh-55" target="ozzWUqwtvMehHK5JyDFh-1" edge="1">
          <mxGeometry relative="1" as="geometry" />
        </mxCell>
        <mxCell id="erY_Y8K54nVoBbs4rCjk-38" value="*" style="edgeLabel;html=1;align=center;verticalAlign=middle;resizable=0;points=[];" parent="ozzWUqwtvMehHK5JyDFh-73" vertex="1" connectable="0">
          <mxGeometry x="-0.8871" y="-3" relative="1" as="geometry">
            <mxPoint y="-4" as="offset" />
          </mxGeometry>
        </mxCell>
        <mxCell id="erY_Y8K54nVoBbs4rCjk-39" value="1" style="edgeLabel;html=1;align=center;verticalAlign=middle;resizable=0;points=[];" parent="ozzWUqwtvMehHK5JyDFh-73" vertex="1" connectable="0">
          <mxGeometry x="0.8871" relative="1" as="geometry">
            <mxPoint as="offset" />
          </mxGeometry>
        </mxCell>
        <mxCell id="ozzWUqwtvMehHK5JyDFh-55" value="detailCourses" style="swimlane;fontStyle=0;align=center;verticalAlign=top;childLayout=stackLayout;horizontal=1;startSize=26;horizontalStack=0;resizeParent=1;resizeLast=0;collapsible=1;marginBottom=0;rounded=0;shadow=0;strokeWidth=1;" parent="1" vertex="1">
          <mxGeometry x="20" y="-1390" width="160" height="130" as="geometry">
            <mxRectangle x="130" y="380" width="160" height="26" as="alternateBounds" />
          </mxGeometry>
        </mxCell>
        <mxCell id="ozzWUqwtvMehHK5JyDFh-80" value="id " style="text;align=left;verticalAlign=top;spacingLeft=4;spacingRight=4;overflow=hidden;rotatable=0;points=[[0,0.5],[1,0.5]];portConstraint=eastwest;fillColor=#f8cecc;strokeColor=#b85450;" parent="ozzWUqwtvMehHK5JyDFh-55" vertex="1">
          <mxGeometry y="26" width="160" height="26" as="geometry" />
        </mxCell>
        <mxCell id="ozzWUqwtvMehHK5JyDFh-56" value="quantite" style="text;align=left;verticalAlign=top;spacingLeft=4;spacingRight=4;overflow=hidden;rotatable=0;points=[[0,0.5],[1,0.5]];portConstraint=eastwest;" parent="ozzWUqwtvMehHK5JyDFh-55" vertex="1">
          <mxGeometry y="52" width="160" height="26" as="geometry" />
        </mxCell>
        <mxCell id="erY_Y8K54nVoBbs4rCjk-17" style="edgeStyle=orthogonalEdgeStyle;rounded=0;orthogonalLoop=1;jettySize=auto;html=1;endArrow=none;endFill=0;" parent="1" source="odE3o9voV-Ob1sfh6Uxt-1" target="4SEUAabvdpcE1m8a-b8G-1" edge="1">
          <mxGeometry relative="1" as="geometry">
            <Array as="points">
              <mxPoint x="-465" y="-1760" />
              <mxPoint x="-465" y="-1730" />
            </Array>
          </mxGeometry>
        </mxCell>
        <mxCell id="erY_Y8K54nVoBbs4rCjk-43" value="favori" style="edgeLabel;html=1;align=center;verticalAlign=middle;resizable=0;points=[];" parent="erY_Y8K54nVoBbs4rCjk-17" vertex="1" connectable="0">
          <mxGeometry x="-0.2429" y="-2" relative="1" as="geometry">
            <mxPoint as="offset" />
          </mxGeometry>
        </mxCell>
        <mxCell id="erY_Y8K54nVoBbs4rCjk-44" value="*" style="edgeLabel;html=1;align=center;verticalAlign=middle;resizable=0;points=[];" parent="erY_Y8K54nVoBbs4rCjk-17" vertex="1" connectable="0">
          <mxGeometry x="-0.919" y="-1" relative="1" as="geometry">
            <mxPoint as="offset" />
          </mxGeometry>
        </mxCell>
        <mxCell id="erY_Y8K54nVoBbs4rCjk-45" value="*" style="edgeLabel;html=1;align=center;verticalAlign=middle;resizable=0;points=[];" parent="erY_Y8K54nVoBbs4rCjk-17" vertex="1" connectable="0">
          <mxGeometry x="0.819" relative="1" as="geometry">
            <mxPoint as="offset" />
          </mxGeometry>
        </mxCell>
        <mxCell id="erY_Y8K54nVoBbs4rCjk-29" style="edgeStyle=orthogonalEdgeStyle;rounded=0;orthogonalLoop=1;jettySize=auto;html=1;endArrow=none;endFill=0;" parent="1" source="ozzWUqwtvMehHK5JyDFh-47" target="4SEUAabvdpcE1m8a-b8G-1" edge="1">
          <mxGeometry relative="1" as="geometry">
            <mxPoint x="100" y="-1490" as="sourcePoint" />
            <mxPoint x="50" y="-1590" as="targetPoint" />
            <Array as="points">
              <mxPoint x="25" y="-1625" />
              <mxPoint x="25" y="-1590" />
            </Array>
          </mxGeometry>
        </mxCell>
        <mxCell id="erY_Y8K54nVoBbs4rCjk-30" value="*" style="edgeLabel;html=1;align=center;verticalAlign=middle;resizable=0;points=[];" parent="erY_Y8K54nVoBbs4rCjk-29" vertex="1" connectable="0">
          <mxGeometry x="-0.8426" y="-1" relative="1" as="geometry">
            <mxPoint as="offset" />
          </mxGeometry>
        </mxCell>
        <mxCell id="erY_Y8K54nVoBbs4rCjk-31" value="1" style="edgeLabel;html=1;align=center;verticalAlign=middle;resizable=0;points=[];" parent="erY_Y8K54nVoBbs4rCjk-29" vertex="1" connectable="0">
          <mxGeometry x="0.8426" y="-1" relative="1" as="geometry">
            <mxPoint as="offset" />
          </mxGeometry>
        </mxCell>
      </root>
    </mxGraphModel>
  </diagram>
</mxfile>
